<?xml version="1.0" encoding="UTF-8"?>
<!-- Generator: Adobe Illustrator 19.2.0, SVG Export Plug-In . SVG Version: 6.00 Build 0)  -->
<svg version="1.1" id="svg2" inkscape:export-filename="/Users/olivier/Desktop/Blason Rouge/Blason_Vide_3D.png" inkscape:export-xdpi="144" inkscape:export-ydpi="144" inkscape:output_extension="org.inkscape.output.svg.inkscape" inkscape:version="0.91 r13725" sodipodi:docname="Template.svg" sodipodi:version="0.32" xmlns:cc="http://creativecommons.org/ns#" xmlns:dc="http://purl.org/dc/elements/1.1/" xmlns:inkscape="http://www.inkscape.org/namespaces/inkscape" xmlns:rdf="http://www.w3.org/1999/02/22-rdf-syntax-ns#" xmlns:sodipodi="http://sodipodi.sourceforge.net/DTD/sodipodi-0.dtd" xmlns:svg="http://www.w3.org/2000/svg" xmlns="http://www.w3.org/2000/svg" xmlns:xlink="http://www.w3.org/1999/xlink" x="0px" y="0px" viewBox="0 0 600 659.5" style="enable-background:new 0 0 600 659.5;" xml:space="preserve">
<style type="text/css">
	.st0{fill:#E20909;}
	.st1{fill:#FFFFFF;stroke:#000000;stroke-width:3;stroke-miterlimit:10;}
	.st2{fill:#FCEF3C;stroke:#000000;stroke-width:3;}
	.st3{fill:url(#path2875_1_);stroke:#000000;stroke-width:3;stroke-miterlimit:10;}
</style>
<path class="st0" d="M300,657.9c0,0,298.5-112.3,298.5-397.8V1.5H1.5v258.6C1.5,545.6,300,657.9,300,657.9z"/>
<path class="st1" d="M263.2,581.5l1.3,0.7c7.7,4.4,15.6,8.6,23.2,12.6l12.1,6.1l12.1-6.1c7.7-3.9,15.6-8.1,23.2-12.6l1.3-0.7  l-12.5-21.8c13.2-7.6,26-15.8,38.3-24.4l14.5,20.5l1.2-0.9c14.1-9.9,27.6-20.5,40.1-31.4l1.1-1l-16.5-19  c11.6-10,22.5-20.8,32.6-31.6l18.6,17l1-1.1c11.9-13,22.7-26.6,32.4-40.5l0.9-1.2l-20.7-14.4c6.5-9.5,12.6-19.3,17.8-28.9  c1.8-3.3,3.6-6.8,5.3-10.2l22.6,11l0.7-1.3c7.7-15.9,14.2-32.4,19.1-49l0.4-1.4l-24.1-7.1c0.7-2.4,1.3-4.7,2-7.1  c3.2-12.1,5.6-24.6,7.2-37.4l24.9,3.1l0.2-1.5c1.7-13.8,2.6-27.8,2.6-42v-11.1H521v-45.2h25.1v-51.2H521V107h25.1V53.7h-53.3v25.1  h-52.6V53.7h-58.6v25.1h-52.6V53.7h-58.6v25.1H218V53.7h-58.6v25.1h-52.6V53.7H53.6V107h25.1v45.2H53.6v51.2h25.1v45.2H53.6v11.1  c0,14.2,0.9,28.2,2.6,41.9l0.2,1.5l24.9-3.1c1.9,15.1,5,30,9.2,44.5l-24.1,7.1l0.4,1.4c4.9,16.7,11.4,33.2,19,49l0.7,1.3l22.6-11  c6.5,13.4,14.3,26.5,23,39.2l-20.7,14.3l0.9,1.2c9.5,13.9,20.5,27.4,32.4,40.5l1,1.1l18.6-17c9.9,10.9,20.9,21.4,32.6,31.6l-16.5,19  l1.1,1c1.1,0.9,2.2,1.9,3.3,2.8c11.6,9.8,23.9,19.5,36.8,28.5l1.2,0.9l14.5-20.5c12.4,8.6,25.2,16.9,38.4,24.4L263.2,581.5z   M299.9,657.9c-6.8-2.7-78.4-31.4-149-91.8c-43.4-37.1-78-78.7-102.7-123.5C17.2,386.5,1.5,325,1.5,259.9V1.5h597v258.3  c0,65.2-15.7,126.7-46.7,182.8c-24.8,44.9-59.4,86.4-102.8,123.5C378.3,626.5,306.7,655.2,299.9,657.9z"/>
<sodipodi:namedview bordercolor="#666666" borderopacity="1.0" gridtolerance="10.0" guidetolerance="10.0" height="660px" id="base" inkscape:current-layer="svg2" inkscape:cx="300" inkscape:cy="329.99986" inkscape:guide-bbox="true" inkscape:pageopacity="0.0" inkscape:pageshadow="2" inkscape:window-height="856" inkscape:window-maximized="0" inkscape:window-width="1280" inkscape:window-x="-4" inkscape:window-y="0" inkscape:zoom="1.1560601" objecttolerance="10.0" pagecolor="#ffffff" showgrid="false" showguides="true">
	</sodipodi:namedview>
<desc id="desc4">SVG coat of arms</desc>
<g id="g9370" transform="matrix(0.6072994,0,0,0.6935206,-525.20603,251.96104)">
</g>
<g id="g2137" transform="translate(-1456.1316,-460.60449)">
</g>
<g id="g13310" transform="matrix(0.7294331,0,0,0.7294331,81.170094,72.503218)" inkscape:label="Meubles">
	<g id="g16252" transform="matrix(1.588788,0,0,1.588808,-3197.717,-727.3813)">
		<path id="path14367" class="st2" d="M2201.5,509.5c-4.7,0-9.4,0.3-14,0.7c-0.3,13-10.9,23.4-24,23.4c-5.1,0-9.8-1.6-13.7-4.4    c-2.2-2.5-4.5-4.9-6.8-7.2c-5.5,2.5-10.8,5.3-15.9,8.4c1.8,1.7,3.6,3.4,5.3,5.2c0.9,1.1,2,2.1,3,3.2c0.1,0.1,0.1,0.2,0.2,0.2    c22.4,24.2,37.7,54.9,42.5,89.1c-38.3-5.4-72.4-24-97.7-51c-3.1,5.1-6,10.4-8.5,15.8c2,2,4,4,6.1,5.9c3.4,4.1,5.4,9.4,5.4,15.2    c0,13.1-10.5,23.7-23.5,23.9c-0.4,4.5-0.6,9-0.6,13.6c0,4.9,0.2,9.7,0.7,14.5c13,0.3,23.4,10.9,23.4,24c0,4.7-1.3,9-3.7,12.7    c-2.7,2.4-5.3,4.9-7.9,7.4c2.6,5.7,5.5,11.1,8.8,16.4c25.2-26.8,59.1-45.2,97.2-50.6c-5.6,38-24.1,71.8-50.9,96.8    c5.1,3.1,10.4,6,15.9,8.4c2-2,4-4.1,6-6.2c4.1-3.3,9.3-5.3,15-5.3c13.1,0,23.7,10.5,23.9,23.5c4.5,0.4,9,0.7,13.6,0.7    c4.9,0,9.7-0.3,14.5-0.8c0,0,0,0,0,0c0.3-13,10.9-23.4,23.9-23.4c4.7,0,9,1.4,12.7,3.7c2.4,2.7,4.8,5.3,7.4,7.8    c5.7-2.6,11.2-5.5,16.4-8.8c-26.6-25-44.9-58.6-50.5-96.3c37.8,5.6,71.4,23.9,96.3,50.5c3.3-5.2,6.2-10.7,8.8-16.4    c-2.3-2.3-4.7-4.6-7.2-6.8c-2.7-3.9-4.3-8.6-4.3-13.7c0-13,10.4-23.6,23.4-23.9c0.5-4.6,0.7-9.3,0.7-14.1c0-4.7-0.2-9.4-0.7-14    c-13-0.3-23.4-10.9-23.4-24c0-5.1,1.6-9.9,4.4-13.8c2.4-2.2,4.8-4.4,7.1-6.8c-2.5-5.5-5.3-10.8-8.4-15.9c-1.8,1.9-3.6,3.8-5.4,5.6    c-1.1,0.9-2.2,1.9-3.2,3c-23.9,22.1-54.4,37.3-88.2,42.3c5.4-38.1,23.9-72.1,50.7-97.2c-5.2-3.3-10.7-6.2-16.4-8.8    c-2.3,2.3-4.6,4.7-6.8,7.1c-3.9,2.8-8.7,4.4-13.8,4.4c-13,0-23.7-10.5-23.9-23.4C2210.9,509.7,2206.2,509.5,2201.5,509.5z     M2201.5,523.9c5.5,14.7,19.2,25.3,35.5,26.3c-18.6,27.8-29.8,61-30.7,96.7c35.7-0.9,68.9-12.1,96.7-30.7    c1,16.3,11.6,30,26.3,35.5c-14.6,5.5-25.3,19.2-26.3,35.5c-27.8-18.6-61-29.8-96.7-30.7c0.9,35.7,12.1,68.9,30.7,96.7    c-16.1,1.2-29.6,11.8-35.1,26.3c-5.5-14.8-19.4-25.5-35.9-26.3c18.6-27.8,29.7-61,30.6-96.7c-35.7,0.9-68.8,12.1-96.7,30.7    c-1.2-16.1-11.8-29.6-26.3-35.1c14.8-5.5,25.5-19.4,26.3-35.9c27.8,18.6,60.9,29.7,96.6,30.7c-0.9-35.7-12.1-68.9-30.7-96.7    C2182.3,549.1,2196,538.5,2201.5,523.9z"/>
		<g id="g16238">
			
				<path id="path14388" sodipodi:cx="1434.5" sodipodi:cy="387.86218" sodipodi:rx="20.5" sodipodi:ry="19.5" sodipodi:type="arc" class="st2" d="     M2217.4,511.7c0,8.8-7.1,15.9-15.9,15.9c-8.8,0-15.9-7.1-15.9-15.9l0,0c0-8.8,7.1-15.9,15.9-15.9S2217.4,502.9,2217.4,511.7     L2217.4,511.7z"/>
			
				<path id="path14390" sodipodi:cx="1434.5" sodipodi:cy="387.86218" sodipodi:rx="20.5" sodipodi:ry="19.5" sodipodi:type="arc" class="st2" d="     M2145.3,522.5c4.4,7.6,1.8,17.3-5.8,21.7c-7.6,4.4-17.3,1.8-21.7-5.8l0,0c-4.4-7.6-1.8-17.3,5.8-21.7     C2131.2,512.3,2140.9,514.9,2145.3,522.5L2145.3,522.5z"/>
			
				<path id="path14392" sodipodi:cx="1434.5" sodipodi:cy="387.86218" sodipodi:rx="20.5" sodipodi:ry="19.5" sodipodi:type="arc" class="st2" d="     M2117.8,764.8c4.4-7.6,14.1-10.2,21.7-5.8c7.6,4.4,10.2,14.1,5.8,21.7l0,0c-4.4,7.6-14.1,10.2-21.7,5.8     C2116,782.1,2113.4,772.4,2117.8,764.8L2117.8,764.8z"/>
			
				<path id="path14394" sodipodi:cx="1434.5" sodipodi:cy="387.86218" sodipodi:rx="20.5" sodipodi:ry="19.5" sodipodi:type="arc" class="st2" d="     M2185.6,791.5c0-8.8,7.1-15.9,15.9-15.9s15.9,7.1,15.9,15.9l0,0c0,8.8-7.1,15.9-15.9,15.9S2185.6,800.3,2185.6,791.5     L2185.6,791.5z"/>
			
				<path id="path14396" sodipodi:cx="1434.5" sodipodi:cy="387.86218" sodipodi:rx="20.5" sodipodi:ry="19.5" sodipodi:type="arc" class="st2" d="     M2257.7,780.7c-4.4-7.6-1.8-17.3,5.8-21.7c7.6-4.4,17.3-1.8,21.7,5.8l0,0c4.4,7.6,1.8,17.3-5.8,21.7S2262.1,788.3,2257.7,780.7     L2257.7,780.7z"/>
			
				<path id="path14398" sodipodi:cx="1434.5" sodipodi:cy="387.86218" sodipodi:rx="20.5" sodipodi:ry="19.5" sodipodi:type="arc" class="st2" d="     M2314.7,735.3c-7.6-4.4-10.2-14.1-5.8-21.7c4.4-7.6,14.1-10.2,21.7-5.8l0,0c7.6,4.4,10.2,14.1,5.8,21.7     C2332,737.1,2322.3,739.7,2314.7,735.3L2314.7,735.3z"/>
			
				<path id="path14400" sodipodi:cx="1434.5" sodipodi:cy="387.86218" sodipodi:rx="20.5" sodipodi:ry="19.5" sodipodi:type="arc" class="st2" d="     M2341.4,667.5c-8.8,0-15.9-7.1-15.9-15.9c0-8.8,7.1-15.9,15.9-15.9l0,0c8.8,0,15.9,7.1,15.9,15.9     C2357.3,660.4,2350.2,667.5,2341.4,667.5L2341.4,667.5z"/>
			
				<path id="path14402" sodipodi:cx="1434.5" sodipodi:cy="387.86218" sodipodi:rx="20.5" sodipodi:ry="19.5" sodipodi:type="arc" class="st2" d="     M2330.6,595.4c-7.6,4.4-17.3,1.8-21.7-5.8c-4.4-7.6-1.8-17.3,5.8-21.7l0,0c7.6-4.4,17.3-1.8,21.7,5.8     C2340.8,581.3,2338.2,591,2330.6,595.4L2330.6,595.4z"/>
			
				<path id="path14404" sodipodi:cx="1434.5" sodipodi:cy="387.86218" sodipodi:rx="20.5" sodipodi:ry="19.5" sodipodi:type="arc" class="st2" d="     M2285.2,538.4c-4.4,7.6-14.1,10.2-21.7,5.8c-7.6-4.4-10.2-14.1-5.8-21.7l0,0c4.4-7.6,14.1-10.2,21.7-5.8     C2287,521.1,2289.6,530.8,2285.2,538.4L2285.2,538.4z"/>
			
				<path id="path14406" sodipodi:cx="1434.5" sodipodi:cy="387.86218" sodipodi:rx="20.5" sodipodi:ry="19.5" sodipodi:type="arc" class="st2" d="     M2088.3,567.9c7.6,4.4,10.2,14.1,5.8,21.7c-4.4,7.6-14.1,10.2-21.7,5.8l0,0c-7.6-4.4-10.2-14.1-5.8-21.7     C2071,566.1,2080.7,563.5,2088.3,567.9L2088.3,567.9z"/>
			
				<path id="path14408" sodipodi:cx="1434.5" sodipodi:cy="387.86218" sodipodi:rx="20.5" sodipodi:ry="19.5" sodipodi:type="arc" class="st2" d="     M2061.6,635.7c8.8,0,15.9,7.1,15.9,15.9s-7.1,15.9-15.9,15.9l0,0c-8.8,0-15.9-7.1-15.9-15.9     C2045.7,642.8,2052.8,635.7,2061.6,635.7L2061.6,635.7z"/>
			
				<path id="path14410" sodipodi:cx="1434.5" sodipodi:cy="387.86218" sodipodi:rx="20.5" sodipodi:ry="19.5" sodipodi:type="arc" class="st2" d="     M2072.4,707.8c7.6-4.4,17.3-1.8,21.7,5.8c4.4,7.6,1.8,17.3-5.8,21.7l0,0c-7.6,4.4-17.3,1.8-21.7-5.8     C2062.2,721.9,2064.8,712.2,2072.4,707.8L2072.4,707.8z"/>
		</g>
	</g>
</g>
<radialGradient id="path2875_1_" cx="-394.4377" cy="-259.6452" r="299.8217" gradientTransform="matrix(1.3534 0 0 1.3491 755.8265 569.718)" gradientUnits="userSpaceOnUse">
	<stop offset="0" style="stop-color:#FFFFFF;stop-opacity:0.3137"/>
	<stop offset="0.19" style="stop-color:#FFFFFF;stop-opacity:0.251"/>
	<stop offset="0.6" style="stop-color:#6B6B6B;stop-opacity:0.1255"/>
	<stop offset="1" style="stop-color:#000000;stop-opacity:0.1255"/>
</radialGradient>
<path id="path2875_3_" class="st3" d="M300,657.9c0,0,298.5-112.3,298.5-397.8V1.5H1.5v258.6C1.5,545.6,300,657.9,300,657.9z"/>
</svg>